<?xml version="1.0" encoding="utf-8"?>
<!-- Generator: Adobe Illustrator 23.0.0, SVG Export Plug-In . SVG Version: 6.00 Build 0)  -->
<svg version="1.1" id="Layer_1" xmlns="http://www.w3.org/2000/svg" xmlns:xlink="http://www.w3.org/1999/xlink" x="0px" y="0px"
	 viewBox="0 0 512 512" style="enable-background:new 0 0 512 512;" xml:space="preserve">
<style type="text/css">
	.st0{display:none;}
	.st1{display:inline;}
</style>
<g class="st0">
	<g class="st1">
		<g>
			<g>
				<circle cx="187.18" cy="136.08" r="47.13"/>
			</g>
		</g>
	</g>
</g>
<g class="st0">
	<g class="st1">
		<g>
			<g>
				<path d="M245.4,241.42c0,11.37-1.94,22.32-5.68,32.57c-2.08,5.41-7.21,9.01-13.03,9.01h-79c-5.82,0-10.95-3.6-13.03-9.01
					c-3.74-10.26-5.68-21.21-5.68-32.57c0-23.29,7.9-43.8,20.37-57.52c10.26,8.32,23.42,13.17,37.84,13.17s27.58-4.85,37.84-13.17
					C237.5,197.62,245.4,218.13,245.4,241.42z"/>
			</g>
		</g>
	</g>
</g>
<g>
	<g>
		<g>
			<g>
				<g>
					<path d="M239.96,337.84c2.67,0.43,5.27-0.03,7.41-1.26c2.2-1.15,3.72-3.06,4.29-5.44l17.92-73.12
						c-6.57-0.77-13.03-2.02-19.27-3.6l-17.92,73.12C231.28,332.2,234.73,336.82,239.96,337.84z"/>
				</g>
			</g>
		</g>
	</g>
</g>
<g>
	<g>
		<g>
			<g>
				<path d="M236.44,90.18c37.42-24.48,87.75-13.92,112.2,23.54s13.9,87.85-23.52,112.32c-37.42,24.48-87.75,13.92-112.2-23.54
					S199.02,114.66,236.44,90.18 M228.37,77.83c-44.23,28.93-56.69,88.47-27.79,132.74s88.37,56.76,132.6,27.82
					s56.69-88.47,27.79-132.74C332.07,61.38,272.6,48.9,228.37,77.83L228.37,77.83z"/>
			</g>
		</g>
	</g>
</g>
<g>
	<path d="M68.8,336.83H82l-17.2,70.4H51.6L68.8,336.83z"/>
	<path d="M87.04,394.67l4.88-7.92c3.76,2.32,7.12,3.12,10.72,3.12c2.56,0,4.4-1.12,4.4-3.12s-2.16-3.12-5.6-4.08l-2.64-0.8
		c-6.96-2.08-11.68-4.8-11.68-11.84c0-9.12,6.56-15.12,16.56-15.12c6.48,0,11.92,1.52,15.92,4.48l-5.44,8.56
		c-2.96-1.92-5.92-2.8-9.04-2.8c-2.88,0-4.72,1.04-4.72,2.8c0,1.84,2,2.88,4.96,3.68l2.56,0.8c7.2,2.16,12.48,5.52,12.48,13.44
		c0,8.56-7.04,14.16-17.44,14.16C96.64,400.03,91.04,398.27,87.04,394.67z"/>
	<path d="M165.68,382.11h-26.56c0.56,4.72,2.4,7.68,6.96,7.68c3.2,0,5.68-1.6,7.52-4.24l10.08,4.96c-3.28,5.68-9.6,9.52-17.36,9.52
		c-12.56,0-21.04-8.8-21.04-22.16c0-13.68,8.16-22.96,20.4-22.96S166,363.63,166,376.83C166,378.59,165.92,380.59,165.68,382.11z
		 M139.12,373.31h13.28c-0.64-5.28-2.72-8.16-6.72-8.16C141.84,365.15,139.84,368.11,139.12,373.31z"/>
	<path d="M206.96,371.87v27.36h-12.64l-0.16-4.72c-2.48,3.6-6.24,5.52-10.16,5.52c-8.48,0-14.08-5.52-14.08-13.84
		c0-8.56,6.88-14.16,17.12-14.16c2.16,0,4.48,0.24,6.88,0.72c-0.08-4.8-2.88-7.6-7.92-7.6c-3.12,0-5.76,1.04-8.08,2.96l-5.6-7.68
		c4.64-3.68,9.76-5.52,17.12-5.52C199.84,354.91,206.96,361.63,206.96,371.87z M193.92,381.39c-1.76-0.32-3.52-0.48-4.96-0.48
		c-3.68,0-6,2.08-6,4.96c0,2.96,1.44,4.88,4.64,4.88C191.2,390.75,193.92,387.31,193.92,381.39z"/>
	<path d="M241.6,354.91l-0.88,12.08c-7.28,0-12.56,3.92-12.56,9.68v22.56h-13.04v-43.52h12.64l0.16,4.96
		C231.12,356.99,235.84,354.91,241.6,354.91z"/>
	<path d="M244.4,377.47c0-13.52,8.72-22.56,21.92-22.56c5.28,0,10.16,2,13.92,5.12l-7.36,8.88c-1.52-1.68-3.44-2.8-6.24-2.8
		c-5.2,0-8.64,4.56-8.64,11.36c0,6.8,3.36,11.36,8.64,11.36c3.28,0,5.76-1.12,7.52-3.6l7.36,8.64c-3.84,4.16-9.36,6.16-15.44,6.16
		C253.04,400.03,244.4,390.99,244.4,377.47z"/>
	<path d="M326.56,370.67v28.56h-13.12v-26.56c0-4-2.72-6.56-6.88-6.56c-4.24,0-6.96,2.56-6.96,6.56v26.56h-13.04v-62.4h13.04v23.2
		c3.04-3.44,7.28-5.12,11.6-5.12C320.4,354.91,326.56,361.23,326.56,370.67z"/>
	<path d="M349.92,336.83h13.2l-17.2,70.4h-13.2L349.92,336.83z"/>
	<path d="M407.51,355.71v43.52h-12.56l-0.24-4.4c-2.88,3.52-6.96,5.2-10.96,5.2c-8.64,0-14.48-6.24-14.48-15.76v-28.56h13.12v26.56
		c0,3.92,2.4,6.56,6,6.56c3.6,0,6-2.64,6-6.56v-26.56H407.51z"/>
	<path d="M442.55,354.91l-0.88,12.08c-7.28,0-12.56,3.92-12.56,9.68v22.56h-13.04v-43.52h12.64l0.16,4.96
		C432.07,356.99,436.79,354.91,442.55,354.91z"/>
	<path d="M447.43,336.83h13.12v62.4h-13.12V336.83z"/>
</g>
</svg>
